<?xml version="1.0" standalone="no"?>
<!DOCTYPE svg PUBLIC "-//W3C//DTD SVG 20010904//EN"
 "http://www.w3.org/TR/2001/REC-SVG-20010904/DTD/svg10.dtd">
<svg version="1.0" xmlns="http://www.w3.org/2000/svg"
 width="512.000000pt" height="512.000000pt" viewBox="0 0 512.000000 512.000000"
 preserveAspectRatio="xMidYMid meet">

<g transform="translate(0.000000,512.000000) scale(0.100000,-0.100000)"
fill="#000000" stroke="none">
<path d="M930 5104 c-230 -49 -432 -247 -485 -477 -14 -60 -15 -289 -15 -2067
0 -2223 -5 -2061 68 -2210 53 -109 168 -222 282 -279 140 -69 160 -71 715 -71
556 0 576 2 714 72 146 73 259 203 319 370 l27 73 0 2045 0 2045 -27 73 c-60
167 -173 297 -319 370 -138 70 -158 72 -719 71 -384 0 -510 -4 -560 -15z
m1106 -446 c21 -15 50 -44 64 -65 l25 -37 0 -1995 0 -1996 -27 -38 c-14 -22
-43 -51 -65 -65 l-38 -27 -502 0 -501 0 -44 30 c-23 17 -54 51 -68 75 -25 45
-25 48 -25 285 l0 240 357 5 356 5 44 30 c109 77 124 224 34 323 -50 56 -53
57 -436 62 l-355 5 -3 213 -2 212 237 0 c210 0 243 3 278 19 77 36 125 111
125 196 0 83 -39 148 -115 188 -37 21 -57 22 -282 25 l-243 3 0 210 0 209 328
0 c386 0 407 3 470 76 96 109 68 264 -59 328 l-53 26 -343 0 -343 0 2 213 3
212 251 5 c247 5 251 5 287 30 21 14 50 43 65 64 24 35 27 49 27 116 0 67 -3
81 -27 116 -15 21 -44 50 -65 64 -36 25 -40 25 -287 30 l-251 5 0 240 c0 229
1 242 22 282 23 43 69 84 113 102 16 6 207 9 516 8 l491 -2 39 -27z"/>
<path d="M3755 5101 c-46 -21 -719 -691 -747 -744 -34 -64 -17 -179 35 -235
58 -63 173 -85 247 -48 19 10 104 86 188 169 l152 152 0 -1835 0 -1835 -152
152 c-84 83 -169 159 -188 169 -73 38 -188 16 -247 -48 -52 -56 -69 -171 -35
-236 28 -52 701 -721 747 -743 59 -27 123 -25 181 9 32 17 170 149 390 372
371 375 370 374 362 476 -9 107 -99 189 -208 188 -33 0 -69 -7 -90 -18 -19
-10 -104 -86 -187 -169 l-153 -152 0 1835 0 1835 153 -152 c83 -83 168 -159
187 -169 86 -43 205 -10 264 74 39 55 48 149 20 205 -28 54 -700 726 -749 748
-22 10 -60 19 -85 19 -25 0 -63 -9 -85 -19z"/>
</g>
</svg>
