<?xml version="1.0" standalone="no"?>
<!DOCTYPE svg PUBLIC "-//W3C//DTD SVG 20010904//EN"
 "http://www.w3.org/TR/2001/REC-SVG-20010904/DTD/svg10.dtd">
<svg version="1.0" xmlns="http://www.w3.org/2000/svg"
 width="512.000000pt" height="512.000000pt" viewBox="0 0 512.000000 512.000000"
 preserveAspectRatio="xMidYMid meet">

<g transform="translate(0.000000,512.000000) scale(0.100000,-0.100000)"
fill="#000000" stroke="none">
<path d="M2460 5114 c-240 -44 -432 -184 -535 -392 -56 -115 -86 -266 -71
-366 l7 -46 149 0 148 0 -1 83 c-1 102 20 175 70 247 80 114 193 173 333 173
140 0 253 -59 333 -173 50 -72 71 -145 70 -247 l-1 -83 148 0 149 0 7 46 c4
26 4 75 1 110 -28 296 -224 536 -512 626 -59 18 -241 32 -295 22z"/>
<path d="M1261 3985 c-380 -84 -647 -354 -730 -740 -6 -27 -95 -525 -198
-1105 l-187 -1055 -1 -160 c0 -138 3 -171 23 -240 46 -159 131 -302 253 -424
104 -103 258 -189 419 -233 l85 -23 1635 0 1635 0 85 23 c161 44 315 130 419
233 122 122 207 265 253 424 20 69 23 102 23 240 l-1 160 -187 1055 c-103 580
-192 1078 -198 1105 -77 358 -309 613 -656 722 l-88 28 -1260 2 c-1047 1
-1271 -1 -1324 -12z m456 -1356 c74 -36 83 -65 83 -281 l0 -183 226 232 c240
248 261 263 337 249 97 -18 150 -137 98 -223 -11 -17 -104 -117 -206 -223
-102 -105 -185 -195 -183 -200 2 -5 86 -96 188 -201 102 -106 193 -204 202
-218 22 -33 23 -102 2 -147 -32 -67 -130 -97 -199 -61 -17 8 -127 115 -245
238 l-215 222 -5 -191 c-5 -172 -7 -193 -26 -218 -37 -50 -68 -66 -124 -66
-59 0 -91 18 -127 72 l-23 33 0 536 c0 608 -3 584 80 628 53 28 82 29 137 2z
m1531 6 c91 -22 159 -60 228 -130 67 -66 82 -103 70 -170 -9 -46 -65 -102
-111 -111 -59 -11 -99 3 -159 56 -89 77 -171 86 -250 27 -61 -47 -66 -70 -66
-308 0 -208 0 -213 25 -255 66 -113 250 -110 310 6 26 51 21 60 -36 60 -131 0
-213 133 -141 229 45 61 61 66 227 69 173 4 207 -5 248 -62 19 -27 22 -46 25
-148 3 -88 -1 -132 -13 -175 -65 -223 -242 -363 -460 -365 -220 -2 -406 136
-472 350 -15 48 -18 95 -18 297 0 224 2 244 23 306 84 244 326 381 570 324z"/>
</g>
</svg>
